<?xml version="1.0" encoding="UTF-8"?>
<svg id="_レイヤー_1" data-name="レイヤー 1" xmlns="http://www.w3.org/2000/svg" width="2938" height="540" viewBox="0 0 2938 540">
  <g>
    <path d="M72.48,481.05c-2.4,0-4.5-.15-6.6-.15-1.65-.15-3-4.35-3-7.2,0-1.35.3-2.55,1.2-2.55,33.3-1.35,77.25-8.1,81.9-48.6.15-1.65.3-3.15.3-4.65,0-18.75-13.65-30.9-35.85-30.9-17.4,0-50.55,7.35-67.8,12.3-.6.15-1.2.3-1.65.3-.9,0-1.35-.45-1.35-1.95,0-2.25-1.5-6.45-3-8.55-.45-.6-.75-1.05-.75-1.65s.6-1.05,1.8-1.05c3.75,0,18-1.5,23.1-2.7,5.4-1.35,37.2-7.05,53.25-7.05,19.5,0,56.7,7.35,56.7,45.75,0,50.1-65.4,58.65-98.25,58.65Z" style="fill: #fff;"/>
    <path d="M310.82,356.56c.6,0,1.2.3,2.25,1.65,1.2,1.5,3.15,3,17.7,12.75,1.35.9,1.95,1.8,1.95,2.4,0,1.5-2.25,2.4-4.5,3.3-17.85,7.05-57.45,20.4-74.4,28.35-9,4.2-12.15,6.45-12.15,10.65,0,3.75,4.65,8.25,14.7,13.5,20.55,10.8,56.85,27,77.85,37.35,1.95,1.05,3.15,1.8,3.15,2.55,0,.6-.9,1.5-2.7,2.55-5.4,3.45-14.7,6-19.95,12.6-1.05,1.35-1.95,1.95-2.7,1.95-1.05,0-1.95-.75-3.3-2.1-6.45-6.45-16.8-14.25-27.9-22.35s-22.5-15.9-30.15-21.75c-18.75-14.25-19.95-17.4-19.95-23.85,0-7.5,2.85-11.55,16.65-20.25,5.7-3.6,17.4-10.05,29.4-17.1,13.35-7.8,26.85-15.9,32.4-21.45.45-.45,1.05-.6,1.35-.75h.3Z" style="fill: #fff;"/>
    <path d="M429.78,363.75c-4.35,22.95-7.35,52.2-7.35,79.35,0,12.9.75,25.35,2.25,36.45,0,.45.15.9.15,1.2,0,1.2-.6,1.65-2.1,1.65-.6,0-1.35,0-2.25-.15-.75-.15-1.8-.15-3.15-.15-3.3,0-7.65.3-9.3.45-1.05.15-1.8.3-2.4.3-1.2,0-1.35-.6-1.5-3-.75-10.2-1.05-20.55-1.05-30.9,0-28.35,2.55-57.15,6.45-84.75.15-1.35.6-1.8,1.2-1.8s1.35.45,2.55.6h1.65c3.3,0,8.7-.6,11.7-1.05.45,0,1.05-.15,1.35-.15,1.2,0,1.8.3,1.8,1.5v.45ZM503.57,448.5c4.35,1.95,7.95,3.9,11.25,6,.45.3,17.1,12.15,17.1,14.25,0,.45-.3,1.2-1.2,1.8-1.65,1.2-4.35,4.8-5.1,7.05-.45,1.5-1.05,2.1-1.65,2.1-.45,0-.75-.45-1.2-.9-5.25-7.5-12-14.7-19.95-19.5-1.8,11.85-8.4,27.3-33.6,27.3-15,0-31.8-6.75-31.8-22.95,0-18.15,21.3-21.9,30.75-22.05,5.85,0,11.25.45,16.05,1.2v-45.3h-17.85c-2.25,0-24.3.6-25.95.9h-.6c-.75,0-.9-.3-.9-.9s.15-1.2.3-1.8c.15-.9.3-1.8.3-2.85,0-.9-.15-1.95-.3-2.85-.15-.75-.6-1.8-.6-2.4s.3-.9,1.05-.9c.15,0,.45,0,.9.15,1.65.45,18.9,1.2,25.8,1.2h17.7v-7.2c0-6.3-.3-13.05-.45-16.5,0-1.05-.15-1.8-.15-2.4,0-1.2.45-1.5,2.85-1.5,3.15,0,11.25-.9,14.1-1.65.9-.15,1.5-.3,1.95-.3.9,0,1.2.45,1.2,1.5,0,.45-.15,1.2-.15,1.95-.15,3-.45,12.75-.45,17.7,0,1.05.15,4.05.15,8.4,8.7-.15,22.65-1.05,23.7-1.35h.3c.6,0,.75.3.75.9s-.15,1.35-.3,1.95c-.3,1.05-.45,2.25-.45,3.3,0,.9.15,1.8.45,2.7.15.6.45,1.35.45,1.8,0,.6-.3,1.05-1.05,1.05h-.3c-1.65-.15-15.6-.75-23.55-.9.15,14.1.45,33.3.45,45.6v5.4ZM468.77,450.15c-4.35,0-19.05.75-19.05,10.8,0,7.95,9.45,10.8,16.8,10.8,16.35,0,17.55-15.6,17.7-19.8-4.65-1.05-9.9-1.8-15.45-1.8ZM504.77,356.71c0-1.2,2.1-2.1,3.75-2.1.6,0,1.2.15,1.5.45,3.3,4.35,11.85,19.2,11.85,21.3,0,.75-.6,1.05-2.1,1.35-3.75.6-7.5,2.4-8.55,3.45-.3.3-.75.45-1.05.45-.45,0-.9-.3-.9-1.2-.15-6-2.25-17.4-4.5-23.4v-.3ZM519.62,353.86c0-.15-.15-.3-.15-.45,0-1.2,2.4-2.25,4.05-2.25.6,0,1.05.15,1.35.45,7.2,8.7,12.9,19.8,12.9,20.55s-.6,1.2-2.1,1.5c-3.75.9-7.5,2.85-8.4,3.75-.45.45-.75.75-1.05.75-.45,0-.75-.45-.9-1.2-.45-5.85-3.3-17.1-5.7-23.1Z" style="fill: #fff;"/>
    <path d="M690.92,463.5c1.65,0,2.25.3,2.25,1.05,0,.6-.45,1.5-1.05,2.7-1.2,2.4-6.9,8.85-7.8,13.65-.75,4.35-1.35,4.5-4.65,4.5-43.2-1.05-67.2-22.2-67.2-51.9,0-24.75,19.2-46.95,39.45-55.8-9.45.45-23.55.9-34.95,1.05-7.05.15-26.1,1.2-33.15,2.25-.6.15-1.2.15-1.65.15-.9,0-1.5-.3-1.5-1.35,0-.3,0-.75.15-1.2.3-1.2.3-2.4.3-3.6,0-1.65-.15-3.45-.6-5.1-.15-.6-.3-1.05-.3-1.5,0-1.05.6-1.35,1.65-1.35.6,0,1.05.15,1.8.15,1.05.15,7.35.75,30.9.75,15.3,0,31.05,0,51.75-.45,8.85-.15,18-1.95,27.6-3.3,1.2-.15,2.4-.45,3.45-.45s1.95.3,2.4,1.65c1.65,5.7,6.15,9.3,6.6,11.85v.6c0,1.2-.75,1.5-1.8,1.5-.75,0-1.8-.15-2.7-.15-7.05-.6-15.45-1.2-22.35-1.2-3.9,0-7.35.3-9.6.75-22.8,5.1-41.1,28.8-41.1,49.05,0,10.8,7.2,30.3,31.35,34.35,3.9.6,15.45,1.5,24,1.5,1.95,0,3.9,0,5.4-.15h1.35ZM667.52,392.1c0-1.35,3-2.55,5.1-2.55.75,0,1.35.15,1.65.45,4.05,4.2,15.6,20.7,15.6,23.25,0,.6-.6,1.2-2.4,1.5-4.05.75-8.25,2.7-9.9,4.5-.45.6-1.05.75-1.5.75s-.9-.3-1.05-1.2c-.45-6-4.65-20.1-7.35-26.25,0-.15-.15-.3-.15-.45ZM707.42,408c-4.65,1.5-8.55,3.9-9.75,5.25-.45.6-1.05.9-1.5.9-.6,0-.9-.45-1.05-1.2-.9-6.15-6-19.05-9.6-25.5-.15-.15-.15-.3-.15-.45,0-1.35,3.15-3,5.1-3,3.45,0,19.2,20.85,19.2,22.35,0,.6-.6,1.05-2.25,1.65Z" style="fill: #fff;"/>
    <path d="M888.77,402.9c-1.8-.15-29.4-.75-39.6-.75h-16.35c9.3,32.55,36.9,59.85,63,67.35.6.15.9.6.9,1.2,0,.45-.3.9-.75,1.35-7.95,6.15-14.4,10.5-17.1,14.7-.45.75-1.05,1.05-1.8,1.05-.3,0-.75-.15-1.2-.3-24-11.4-43.2-43.65-47.1-76.95-6.15,38.7-25.2,65.25-72.9,80.1-.9.3-3.9-4.8-3.9-6.6,0-.3.15-.45.3-.6,37.35-16.05,53.85-44.4,57-81.3h-12.15c-9.75,0-36.9.45-38.7.75h-.6c-.9,0-1.2-.45-1.2-1.05,0-.45.15-1.05.3-1.5.15-.75.3-1.95.3-3,0-1.2-.15-2.4-.3-3-.15-.75-.45-1.65-.45-2.25s.15-.9.9-.9c.3,0,.6,0,1.05.15,1.8.45,29.55,1.05,38.7,1.05h12.75c.3-7.05.6-14.4.6-21.45,0-5.55-.15-11.1-.6-16.5v-.45c0-1.35.45-1.95,1.65-1.95.3,0,.6,0,1.05.15,1.05.15,2.25.3,3.45.3,4.35,0,9.6-.9,13.95-1.95.45-.15.75-.15,1.05-.15,1.05,0,1.35.75,1.35,1.95v1.05c-.9,13.05-.75,26.1-1.65,39h18.45c11.1,0,38.55-1.05,39.75-1.2h.3c.6,0,.9.3.9.9,0,.45-.3,1.2-.45,1.8-.15.6-.3,2.1-.3,3.6,0,1.2.15,2.25.3,2.7.3.75.6,1.35.6,1.8,0,.6-.45.9-1.2.9h-.3Z" style="fill: #fff;"/>
    <path d="M1069.97,451.2c-1.65-.15-23.4-.6-34.5-.75.45,2.25.75,4.65.75,7.05,0,24.15-20.25,33.3-41.7,33.3-12.75,0-25.8-3.15-35.55-8.4-.3-.15-.45-.6-.45-1.2,0-2.25,1.65-6.6,3-6.6h.15c5.7,2.1,15.6,4.2,25.35,4.2,14.4,0,28.35-4.65,28.35-21.45,0-2.4-.45-4.8-1.05-6.9h-40.8c-8.4,0-34.05.45-35.85.75h-.6c-.9,0-1.05-.45-1.05-1.05,0-.45.15-1.05.15-1.5.15-.75.15-1.95.15-3s0-2.1-.15-2.4c0-.75-.45-1.65-.45-2.4,0-.6.15-.9.9-.9.3,0,.6,0,1.05.15,1.8.6,27.45,1.2,35.85,1.2h35.4c-4.05-4.05-9.9-6.9-17.4-8.7-.9-.15-1.35-.9-1.35-1.65,0-.9.45-1.8.9-2.1,8.25-4.8,16.8-11.4,21-14.7h-20.85c-5.1,0-24.9.6-27.15.9h-.6c-.9,0-1.2-.3-1.2-.9,0-.3.15-.75.3-1.2.15-.6.3-1.65.3-2.55,0-1.35-.15-2.55-.3-3.3-.15-.6-.45-1.35-.45-1.95,0-.45.15-.75.9-.75.3,0,.6,0,1.05.15,2.25.45,22.05.9,27.45.9h20.55c11.25,0,20.85,0,28.65-.6h.3c1.5,0,1.8.9,1.8,1.8v5.7c0,1.5-.3,2.4-2.1,3.3-4.05,1.95-20.85,10.2-28.5,11.85,9.15,3,15.75,7.65,19.65,13.8,8.7,0,36-.75,38.25-1.35h.45c.6,0,.75.45.75,1.05s-.3,1.5-.45,2.25c-.15.75-.3,1.5-.3,2.4,0,1.05.15,2.1.3,2.7.3.75.45,1.35.45,1.95,0,.45-.3.9-1.05.9h-.3ZM1070.27,411.6c0,1.2-.15,1.65-1.05,1.65-.6,0-1.35-.15-2.4-.45-1.35-.3-3.75-.45-6.15-.45-2.7,0-5.7.15-7.5.6-.75.15-1.35.3-1.65.3-.9,0-1.2-.45-1.2-1.35,0-.45.15-1.05.15-1.8.15-2.25.15-7.5.15-10.8v-7.05h-94.95v8.85c0,3.45.15,7.65.15,9.15,0,.45.15.9.15,1.35,0,.6-.3,1.2-1.35,1.2-.3,0-.6-.15-.9-.15-1.65-.3-5.1-.45-8.25-.45-2.4,0-4.5.15-5.85.3-.75.15-1.5.15-1.95.15-.9,0-1.35-.3-1.35-1.5v-.45c.15-3.9.45-7.2.45-10.05v-4.65c0-2.4,0-5.85-.15-10.35,0-.6-.15-1.2-.15-1.65,0-.6.3-.9,1.8-.9h1.35c3.3.3,13.8.3,23.25.3l-.45-1.35c-1.8-8.4-6.6-17.55-12.45-24.3-.15-.15-.15-.3-.15-.45,0-1.5,3.6-4.2,4.8-4.2.75,0,17.4,6.6,27.45,17.85.45.6.75,1.05.75,1.5,0,.75-.6,1.35-2.55,1.95-4.95,1.5-9.45,5.25-13.8,9h30.45c-.45-.45-.75-1.05-.9-1.95-1.95-8.4-5.7-17.85-11.4-25.5-.15-.15-.15-.3-.15-.45,0-1.5,3.75-3.9,5.25-3.9h.3c16.05,7.2,26.25,19.05,26.25,20.4,0,.6-.45,1.35-2.4,1.8-5.25,1.2-9.75,4.95-13.95,8.7-.45.45-.9.75-1.2.9h24.3c-1.5-1.05-2.85-2.55-2.85-3.45,0-.15,0-.3.15-.45,7.2-7.35,13.2-18.9,15.15-26.85.3-1.05.75-1.95,1.65-1.95.45,0,1.2.15,1.95.75,3.45,2.4,9.45,4.65,17.1,6.75,1.05.3,1.35.75,1.35,1.2,0,1.95-12,15-29.25,24h9.3c11.25,0,28.2-1.35,30.75-1.65h.45c1.35,0,1.65.75,1.65,1.95,0,.6-.15,1.35-.15,2.25-.15,1.65-.3,5.25-.3,10.65v4.65c0,3.15.15,6.45.3,9.15v1.2Z" style="fill: #fff;"/>
    <path d="M1250.42,486.15c-1.95-.15-29.25-.75-44.4-.75h-45.9c-16.8,0-42,.45-43.65.75-.3,0-.6.15-.75.15-.9,0-1.2-.45-1.2-1.2,0-.6.3-1.35.45-1.95.15-.75.3-1.8.3-3,0-.9-.15-1.8-.3-2.7-.15-.75-.6-1.8-.6-2.55,0-.6.3-1.05,1.05-1.05.3,0,.6,0,1.05.15,2.55.75,26.55,1.2,43.65,1.2h12.9v-38.7h-3.6c-16.2,0-34.8.45-36.45.75-.3.15-.6.15-.9.15-.75,0-1.05-.45-1.05-.9,0-.6.3-1.35.45-1.95.15-.9.3-1.8.3-2.85,0-.9-.15-2.1-.3-3.15,0-.75-.45-1.65-.45-2.4,0-.45.3-.9,1.05-.9.15,0,.45,0,.9.15,2.55.6,19.8,1.2,36.45,1.2h3.6v-31.5h-26.7c-11.7,20.4-26.1,32.1-26.7,32.1-1.95,0-5.7-3.3-5.7-5.1,0-.15,0-.3.15-.45,13.2-20.1,19.05-37.8,21.9-59.7.15-1.5.15-2.7,1.5-2.7.45,0,1.05.15,1.8.45,5.25,1.65,11.7,2.55,16.2,2.55h2.4c2.1,0,2.7.75,2.7,1.65,0,2.1-5.55,14.4-8.85,21.15h21.3v-7.95c0-4.2-.15-17.85-.45-21.45v-.75c0-1.95,1.2-1.5,3.15-1.65,3.75-.15,12.3-.3,16.2-1.65.9-.3,1.5-.45,2.1-.45.75,0,1.05.3,1.05,1.2v.6c-.75,4.35-.9,20.1-.9,24.15v7.95h16.2c13.8,0,31.35-1.2,32.55-1.35h.3c.75,0,1.05.45,1.05.9,0,.75-.3,1.5-.6,2.25-.3.75-.3,1.8-.3,2.7,0,1.2.15,2.55.3,3,.3.6.45,1.35.45,1.95,0,.75-.3,1.2-1.2,1.2h-.15c-1.95-.15-18.3-.75-32.4-.75h-16.2v31.65h9.45c13.8,0,31.35-1.2,32.55-1.35h.3c.75,0,1.05.45,1.05.9,0,.75-.3,1.5-.6,2.25-.3.75-.3,1.8-.3,2.7,0,1.2.15,2.55.3,3,.3.6.45,1.35.45,1.95,0,.75-.3,1.2-1.2,1.2h-.15c-1.95-.15-18.3-.75-32.4-.75h-9.45v38.7h11.85c15,0,43.35-1.05,44.55-1.35h.45c.6,0,.9.3.9.9s-.3,1.5-.6,2.25c-.3.9-.45,1.95-.45,3,0,1.2.15,2.4.45,3,.3.75.45,1.5.45,2.1s-.3,1.05-1.05,1.05h-.3Z" style="fill: #fff;"/>
    <path d="M1308.63,418.95c-.9,0-1.35-1.35-1.65-2.25-2.85-9.6-10.05-20.1-14.85-24.45-.3-.3-.3-.6-.3-.9,0-1.8,2.85-4.35,4.05-4.35,3.45,0,28.2,12.3,28.2,16.05,0,.6-.45,1.2-1.8,1.95-4.05,2.4-9.15,8.55-11.55,12.15-.9,1.35-1.5,1.8-2.1,1.8ZM1419.47,490.5c-2.1-.3-4.95-.45-7.65-.45-2.1,0-4.2.15-5.85.45-.6.15-1.2.15-1.5.15-1.05,0-1.5-.45-1.5-1.35,0-.3.15-.6.15-1.05.15-1.05.3-4.8.3-8.85h-43.2c0,4.05.15,7.95.15,8.7v.75c0,1.2-.3,1.8-1.2,1.8-.15,0-.6,0-.9-.15-2.1-.45-4.65-.6-7.05-.6-2.1,0-4.05.15-5.4.45-.6.15-1.2.15-1.65.15-1.2,0-1.8-.3-1.8-1.35v-.6c.45-2.4.45-19.05.45-22.95v-19.2c0-2.55-.15-14.1-.3-16.5v-.6c0-1.2.3-1.5,1.65-1.5h.75c4.2.3,10.8.45,18,.45h9.75v-21.15h-7.05c-10.8,0-25.05.3-31.05.6-4.5,11.4-8.85,21.9-13.35,32.85-.9,2.25-1.35,4.35-1.35,6.15,0,3.6,1.35,6.75,3.15,10.2,5.4,10.95,7.5,21.45,7.5,22.5,0,.75-.3,1.35-2.1,1.65-5.4.9-13.05,5.7-16.8,7.95-1.05.6-1.8.9-2.4.9s-.9-.6-.9-1.35c0-.3.15-.75.15-1.2.15-2.85.45-7.05.45-11.55,0-14.25-2.7-27.15-13.05-29.4-.6-.15-.75-.6-.75-1.35,0-2.25,1.8-6,3-6,2.25.3,7.35.9,10.2,1.95,9.75-18.45,16.95-33.15,25.95-53.85.3-.75,1.05-1.05,1.95-1.05,2.25,0,5.55,1.8,5.55,3.15,0,.15-1.95,4.95-3.15,7.95,7.2.3,18.45.75,27,.75h7.05v-19.2c-12.15,1.2-24,1.8-34.65,2.1-1.65,0-3.3-4.35-3.3-6.75,0-.75.15-1.35.6-1.35,25.2-2.7,62.1-12.45,74.25-21.9.45-.45,1.2-.75,1.8-.75.75,0,1.5.45,1.95,1.95,1.35,4.2,5.55,10.5,9.45,14.55.75.75,1.05,1.35,1.05,1.95,0,.9-1.05,1.65-2.25,1.95-9.75,2.55-20.25,4.65-30.9,6.15v21.3h8.55c13.2,0,32.7-.9,33.9-1.2h.45c.6,0,.9.45.9.9,0,.75-.45,1.8-.6,2.25-.15.75-.3,1.5-.3,2.4,0,1.05.15,2.1.3,2.55.3.6.45,1.2.45,1.8,0,.75-.3,1.2-1.2,1.2h-.15c-1.8-.15-20.55-.75-33.75-.75h-8.55v21.15h6c8.25,0,18.3-.3,23.1-.75h.75c1.2,0,1.5.3,1.5,1.65v1.2c-.15,4.65-.3,10.65-.3,14.85v21.75c0,3.75,0,18.9.3,21,0,.45.15.75.15,1.05,0,1.05-.45,1.5-1.8,1.5h-.9ZM1303.53,354.46c18.6,5.55,30,14.7,30,16.5,0,.45-.45,1.05-1.65,1.8-3.75,2.25-8.55,7.8-11.4,12.3-.9,1.35-1.5,1.8-2.1,1.8-.9,0-1.35-1.35-1.8-2.4-3.45-9.45-11.4-19.95-17.7-25.2-.15-.15-.3-.3-.3-.6,0-1.35,3.15-4.2,4.65-4.2h.3ZM1403.42,437.4h-43.2v33h43.2v-33Z" style="fill: #fff;"/>
    <path d="M1589.42,381.9c-1.8-.15-28.95-.9-35.4-.9h-17.4c-4.8,7.95-9.75,15-16.35,24.75,9.15-7.2,21.6-7.35,23.4-7.35,9.3,0,19.2,3.15,22.5,16.2,6.3-1.95,12.45-3.45,17.7-4.8,7.65-1.95,12.15-3.15,20.55-5.85.3-.15.6-.15.9-.15.9,0,1.05.75,1.35,2.4.3,2.25,1.05,4.05,2.55,6,.6.6.9,1.2.9,1.65,0,1.2-.6,1.8-22.35,5.55-6.9,1.2-13.65,2.85-20.25,4.65.15,3.3.3,7.35.3,11.7,0,15.3-.3,15.6-1.8,15.6-5.7,0-12.9,2.4-14.25,2.85-1.2.45-1.95.6-2.55.6-1.05,0-1.35-.6-1.35-1.35s.3-1.5.3-2.1c.9-7.2,1.2-15.15,1.35-21.15-13.5,5.7-28.35,15-28.35,25.95,0,7.2,8.7,14.1,32.85,14.1,14.1,0,30.6-2.4,42.15-4.8.6-.15,1.2-.3,1.65-.3.6,0,1.05.3,1.05.9,0,.3-.15.75-.3,1.2-2.4,7.5-2.85,11.7-2.85,13.5,0,.75.15,1.35.15,1.8,0,1.05-.45,1.8-2.85,2.1-8.1,1.2-19.8,1.95-30.9,1.95-45.3,0-53.7-17.55-53.7-27.45,0-10.65,6.6-24.9,40.95-38.7-1.05-10.05-5.7-12.45-10.95-12.45-12.3,0-25.05,11.25-29.85,18-10.95,14.7-11.25,14.7-12.3,14.7-.75,0-1.65-.45-3-1.65-2.4-2.1-9.45-4.5-13.5-5.7-1.2-.3-1.8-.9-1.8-1.5,0-1.5,2.7-3.6,4.35-5.25,13.35-13.65,24.75-28.8,33.9-45.45-9.6.15-28.2.45-29.55.75h-.6c-.75,0-1.05-.3-1.05-.9s.15-1.2.3-1.65c.15-.75.3-1.8.3-2.85,0-.9-.15-1.95-.3-2.85-.15-.75-.6-1.65-.6-2.4,0-.45.3-.75.9-.75.3,0,.6,0,1.05.15,1.65.45,26.85,1.2,34.5,1.2,2.25-4.65,4.2-9.45,6.15-14.25,1.05-2.55,1.5-3.9,2.85-3.9.6,0,1.5.3,2.7,1.05,1.8,1.2,8.85,2.4,13.2,2.55,1.65,0,2.25.6,2.25,1.35s-5.55,11.55-6.45,13.2h13.65c9.3,0,32.85-1.05,34.05-1.35h.3c.6,0,.75.45.75,1.05s-.15,1.2-.3,1.8c-.15.75-.15,1.95-.15,3s0,1.95.15,2.7c.15.6.3,1.2.3,1.65,0,.75-.3,1.2-1.05,1.2h-.15Z" style="fill: #fff;"/>
    <path d="M1713.63,378.75c-.3,2.25-.45,5.25-.75,8.55-2.1,23.4-4.8,43.5-12.45,60.45,9.3,4.65,17.55,10.2,17.55,12.15,0,.45-.3,1.05-1.2,1.8-3.45,3-7.5,8.4-10.65,14.1-.75,1.35-1.35,1.95-1.95,1.95s-1.05-.6-1.35-1.2c-3.3-6.15-6.6-11.25-10.2-15.45-13.8,19.2-36.75,29.4-37.65,29.4-1.5,0-4.05-4.2-4.05-5.85,0-.3.15-.45.3-.6,15.45-9.3,25.05-20.1,31.2-32.4-6-4.2-13.2-7.35-22.65-10.35-.9-.3-1.65-.9-1.65-2.1,0-.45,0-.75.15-1.2,3.3-10.5,6.75-31.05,9.15-50.25-5.4.3-10.8.75-12.15,1.05h-.6c-.9,0-1.05-.3-1.05-.9,0-.45.15-1.05.3-1.65.3-1.2.45-2.1.45-3.15,0-.9-.15-1.8-.45-2.55-.15-.75-.45-1.65-.45-2.25,0-.45.15-.9.9-.9.3,0,.6.15.9.15,1.65.3,7.65.75,13.2.9,1.05-9.15,1.8-17.4,1.95-23.55,0-2.25.3-2.7,1.65-2.7h1.05c.9.15,1.95.15,3,.15,2.7,0,5.85-.3,9.15-.75.9-.15,1.5-.15,2.1-.15,1.05,0,1.5.3,1.5,1.05,0,.15-.15.45-.15.75-.45,2.25-.6,3.6-.9,5.85l-2.25,19.5h5.25c8.25,0,13.8-.75,20.7-1.8h.75c1.05,0,1.35.45,1.35,1.35v.6ZM1684.38,387.6c-2.25,17.4-5.1,36.6-8.85,51.3,3.6.9,7.35,1.95,11.1,3.15,5.7-15.9,7.2-34.05,9.3-54.45h-11.55ZM1758.32,376.35c0-.6,4.8-3.75,6.15-3.75.15,0,.3.15.3.15,23.85,20.55,30.75,34.95,30.75,35.7,0,.6-.45,1.05-1.8,1.65-1.8.75-9.6,5.4-14.25,11.4-.75.9-1.35,1.35-1.95,1.35s-1.05-.6-1.35-1.65c-1.2-5.4-2.85-10.95-4.65-16.5-29.85,8.7-52.8,12.15-53.55,12.15s-1.05-.3-1.05-1.8c0-3.45-1.8-9.3-4.35-13.8-.3-.45-.45-.9-.45-1.2,0-.9.9-1.35,2.1-1.35,3.6.15,7.35.15,11.25.15,6-15.9,9.45-32.7,10.05-46.5,0-1.05.45-1.65,1.35-1.65.3,0,.6,0,1.05.15,4.2,1.5,11.1,2.4,19.35,2.7,1.2.15,1.65.45,1.65,1.2s-7.8,22.35-24.6,43.95c11.55-.15,23.55-.75,34.35-1.95-2.85-7.35-6.45-14.25-10.35-20.25v-.15ZM1784.12,490.5c-1.8-.3-4.8-.45-7.65-.45-2.25,0-4.5.15-5.85.45-.45.15-.9.15-1.2.15-.9,0-1.2-.45-1.2-1.65v-.75c.15-1.05.3-4.5.3-8.25h-31.95c0,3.9.15,7.35.15,8.1v.75c0,1.2-.3,1.8-1.05,1.8-.15,0-.3,0-.6-.15-1.65-.45-4.35-.6-7.05-.6-2.4,0-4.65.15-5.85.45-.45.15-.9.15-1.35.15-.9,0-1.35-.3-1.35-1.35v-.6c.3-2.55.3-15.9.3-18.6v-24.9c0-2.55,0-13.35-.3-15.3v-.75c0-1.05.3-1.35,1.2-1.35h.75c2.7.45,10.65.45,16.5.45h29.4c5.85,0,13.05-.3,16.8-.9.45-.15.9-.15,1.2-.15.6,0,.9.3.9,1.5v1.05c-.3,3.3-.3,15.15-.3,19.2v21c0,2.25,0,15.9.3,18.15,0,.45.15.75.15,1.2,0,.9-.45,1.35-1.5,1.35h-.75ZM1768.52,437.4h-32.1v33.45h32.1v-33.45Z" style="fill: #fff;"/>
    <path d="M1900.98,486.75c-2.25,0-3.75-3.9-3.75-6.45,0-1.2.3-1.95,1.05-2.1,31.35-3.9,51.9-25.05,51.9-49.65,0-16.2-7.05-29.85-21.6-36-9,30.45-24.3,63.6-43.5,81.15-5.1,4.65-10.8,6.75-16.35,6.75-10.2,0-30.15-9-30.15-35.1,0-19.05,9.15-36.9,23.85-49.05,0,0-3.9-23.25-3.9-29.25,0-1.05.45-1.95,2.85-1.95h.45c2.55,0,7.5-1.5,11.4-3,.45-.15.75-.3,1.05-.3,1.35,0,1.35,1.8,1.35,4.05.45,7.2,1.2,14.1,2.1,20.85,7.5-3.3,17.4-6.3,32.4-6.3h3.3c1.35-6.3,2.25-12.6,2.85-18.6.15-1.2-.3-2.55,2.4-2.55.6,0,1.2,0,2.1.15,1.5.15,3.45.45,5.55.45,2.25,0,4.65-.3,6.75-.75.45-.15.9-.15,1.2-.15,1.2,0,1.5.75,1.5,1.65s-1.95,12.6-4.5,22.2c25.95,6.75,38.55,26.1,38.55,47.85,0,41.7-40.35,53.4-68.7,56.1h-.15ZM1864.53,407.1c-8.7,9-14.25,20.4-14.25,32.85,0,3,.45,6,1.05,9.15,1.2,5.7,7.95,13.5,15.9,13.5,5.1,0,8.7-2.4,14.55-9.75-7.5-10.5-13.2-26.4-17.25-45.75ZM1908.62,389.1c-13.5,0-21.9,3.15-29.4,7.05,3,16.35,7.65,30.75,13.2,40.65,7.65-13.8,14.4-30.6,18.9-47.7h-2.7Z" style="fill: #fff;"/>
    <path d="M2122.67,363.75c1.65,0,3,.45,3,2.25,0,2.1,0,5.1-.15,7.05,0,1.5,0,3.15-1.05,3.9-9.6,7.05-42.75,29.4-51.6,35.4,5.25-1.35,12.45-2.7,23.4-2.7,29.1,0,46.35,13.2,46.35,33.9,0,28.65-29.25,43.05-61.35,43.05-24,0-44.4-11.4-44.4-26.25,0-2.85,1.5-17.7,23.1-17.7,15.3,0,33,9.15,34.95,27.75,13.8-3.3,27.3-13.2,27.3-30.45,0-12.6-9.6-21.6-29.1-21.6-23.55,0-38.55,7.95-54.9,22.05-.75.6-1.2.9-1.65.9-.75,0-1.5-.75-2.7-2.25-3.6-4.65-9.15-6.15-11.55-7.8-1.2-.9-1.65-1.5-1.65-1.95,0-.9,1.05-1.35,1.95-1.8,21.75-12.6,53.85-35.25,75.45-53.1l-22.65.9c-11.85.45-23.55.6-33.3,1.8h-.9c-.6,0-1.2-.15-1.2-1.2,0-.3,0-.75.15-1.2.3-.9.45-2.25.45-3.45,0-1.05-.15-2.1-.45-3-.3-.9-.45-1.5-.45-1.95,0-1.05.6-1.35,1.2-1.35h.3c6.3.6,12.75.75,19.35.75,4.95,0,10.05-.15,15.15-.15,2.85,0,18.6-.6,21.3-.6,10.05-.3,19.65-.6,25.05-1.2h.6ZM2082.77,472.5c-1.2-14.4-14.1-20.85-23.7-20.85-8.85,0-10.8,4.5-10.8,7.5,0,8.55,16.65,13.35,31.95,13.35h2.55Z" style="fill: #fff;"/>
    <path d="M2318.12,382.35c-1.8-.15-29.4-.9-36-.9h-28.2c-.45,5.1-.9,10.2-1.2,15.3,5.7-1.2,11.4-1.8,17.4-1.8,38.4,0,59.7,19.35,59.7,43.8,0,46.95-62.4,50.1-70.8,50.4-1.35.15-2.7-3.75-2.7-6.15,0-1.05.15-1.8.9-1.95,18.15-2.85,51.3-12,51.3-44.85,0-16.95-10.5-32.55-38.25-32.85-6.15,0-12.3.75-18.15,2.25-.15,4.5-.3,8.85-.3,13.2,0,9,.45,17.4,1.8,25.05,7.8-9.3,12.9-19.5,18.75-33.9.3-.75.45-1.35,1.35-1.35.45,0,1.35.3,2.7,1.05,2.85,1.65,9.15,2.4,11.85,2.85,1.5.3,1.95.9,1.95,1.65s-.45,1.65-.9,2.25c-11.1,19.8-17.4,34.8-42.6,55.65-7.05,5.85-17.25,10.5-23.85,10.5-19.2,0-25.95-15.15-25.95-29.4,0-16.95,11.1-38.1,37.65-50.4.3-7.2.9-14.4,1.5-21.3-9.9.15-27.9.6-29.25.9h-.6c-.75,0-1.05-.45-1.05-1.2,0-.6.15-1.2.3-1.8.3-.75.3-1.5.3-2.4,0-.75,0-1.8-.3-2.85-.15-.75-.6-1.8-.6-2.55,0-.6.3-1.05,1.05-1.05.3,0,.6,0,.9.15,1.35.3,19.65,1.05,30,1.2,1.35-15.75,1.5-16.8,2.7-16.8.6,0,1.35.3,2.4.3h.9c3.45,0,8.25-.6,10.95-1.05.9-.15,1.65-.3,2.25-.3.75,0,1.05.3,1.05.9v.45c-.3,1.35-1.35,10.5-2.1,16.5h28.65c9.45,0,33.45-1.05,34.65-1.35.15,0,.3-.15.45-.15.45,0,.6.45.6,1.05,0,.75-.15,1.65-.3,2.4-.15.75-.3,1.95-.3,3.15,0,.75.15,1.5.3,2.1.15.6.45,1.5.45,2.1s-.3,1.2-1.2,1.2h-.15ZM2233.98,420.9c0-2.7.15-5.25.15-7.95-21.3,12.75-23.4,32.1-23.4,36.75s2.25,16.8,11.85,16.8c6.75,0,12-4.2,15.6-7.35-3-10.65-4.2-24.15-4.2-38.25Z" style="fill: #0e9c26;"/>
    <path d="M2454.92,386.7c-1.65-.15-16.2-.6-23.4-.75-8.4,23.85-17.85,47.25-28.95,69.3-1.35,2.55-1.65,3.6-2.85,3.6-.75,0-1.95-.45-3.75-1.05-2.85-1.05-8.1-2.25-13.95-2.55-1.65-.15-2.1-.45-2.1-1.2,0-.9,1.05-2.25,2.1-3.9,11.25-19.5,21.9-41.7,29.7-64.2h-1.35c-2.25,0-24.45.45-26.1.75-.3,0-.45.15-.6.15-.9,0-1.05-.45-1.05-1.05,0-.45.15-1.05.3-1.5.15-.75.3-1.65.3-2.55,0-1.05-.15-2.1-.3-3-.15-.75-.6-1.65-.6-2.4,0-.45.3-.75.9-.75.3,0,.6,0,1.05.15,1.65.45,19.2,1.2,26.1,1.2h4.35c1.65-5.4,3.15-10.95,4.5-16.35.75-3.15.6-4.35,2.55-4.35.6,0,1.35.15,2.4.3,1.05.15,2.4.3,4.2.3,2.7,0,6-.15,10.05-.75h.6c1.35,0,1.8.6,1.8,1.65,0,1.35-4.5,14.55-6.15,19.2,8.1-.15,19.35-1.2,20.4-1.35h.3c.6,0,.75.45.75,1.2,0,.45-.15,1.05-.3,1.65-.3.75-.45,2.25-.45,3.45,0,.9.15,1.65.3,2.1.3.6.45,1.2.45,1.8,0,.45-.3.9-1.05.9h-.15ZM2481.17,448.5c14.25,5.55,33.3,19.2,33.3,21.75,0,.6-.3,1.2-1.35,1.8-1.35.75-4.2,4.2-5.25,6.75-.6,1.35-1.2,1.95-1.8,1.95-.45,0-.9-.3-1.2-.75-6.3-8.85-14.7-16.2-24.45-21-3.9,24.45-24,27-34.2,27-15.9,0-31.8-7.8-31.8-22.65,0-15.9,21.3-20.85,34.5-20.85,4.65,0,9.15.45,13.35,1.05,0-7.2-.15-14.55-.15-19.05,0-6.15-.15-12.45-.3-15.75,0-1.05-.15-1.8-.15-2.4,0-.9.3-1.35,2.25-1.35h1.2c3.45,0,9-.9,13.05-1.95.6-.15,1.2-.3,1.65-.3,1.2,0,1.5.75,1.5,1.65s-.3,1.95-.3,3c-.15,2.85-.45,11.1-.45,15.9,0,3.75.6,12.9.6,22.35v2.85ZM2445.77,451.05c-12.15,0-19.05,4.95-19.05,10.5,0,6.6,9.9,10.05,17.25,10.05,10.05,0,17.7-6.75,18.3-18.75-5.25-1.05-10.65-1.8-16.5-1.8ZM2508.92,399c0,2.1-.6,2.85-1.35,2.85-.6,0-1.35-.45-1.95-.9-7.8-6.15-24.6-10.2-37.95-10.2-1.5,0-3,0-4.35.15h-.15c-1.5,0-2.4-2.7-2.4-4.8,0-1.5.3-2.7,1.05-3,10.8-4.05,22.05-5.4,31.05-5.4,4.8,0,9,.45,12.15,1.05,2.25.45,4.95.15,4.95,2.25,0,.3,0,.6-.15,1.05-1.05,2.85-1.35,6-1.35,8.7,0,3,.3,5.55.45,7.35v.9Z" style="fill: #0e9c26;"/>
    <path d="M2652.17,387.9c-1.8-.15-24.45-.9-30.9-.9h-16.5c-3.3,16.35-13.35,64.05-21.75,91.65-1.05,3.15-.9,4.65-3.3,4.65-.9,0-1.95-.15-3.45-.45-3.45-.6-11.1-1.2-14.85-1.35-1.8-.15-2.4-.9-2.4-1.8,0-1.65,1.5-3.9,2.1-5.7,14.7-41.4,21.6-75.9,23.55-87-8.25.15-24.45.6-25.8.9h-.6c-.75,0-1.05-.3-1.05-.9s.15-1.2.3-1.65c.15-.9.3-1.8.3-2.7,0-1.05-.15-2.1-.3-3-.15-.75-.6-1.8-.6-2.4s.3-.9,1.05-.9c.15,0,.45,0,.9.15,1.5.45,18.6.9,27.45,1.05.9-5.7,1.65-10.35,2.1-15.9.45-3.45-.15-4.65,2.55-4.65.45,0,1.05.15,1.8.15h2.7c3.75,0,9.6-.15,12.3-.6.45,0,.75-.15,1.05-.15,1.35,0,1.65.6,1.65,1.5,0,1.35-.6,3-.9,4.5-.75,4.65-1.8,10.05-2.85,15.15,5.55,0,11.1.15,14.55.15h1.5c8.7,0,28.35-1.05,29.55-1.35h.3c.6,0,.75.45.75,1.2,0,.6-.15,1.2-.3,1.8-.3.9-.45,2.25-.45,3.45,0,.9.15,1.65.3,2.25.3.6.45,1.35.45,1.8,0,.6-.3,1.05-1.05,1.05h-.15ZM2624.57,444.6c-.45,1.35-1.05,4.95-1.05,6.45.15,7.2,7.5,14.1,33.9,14.1,5.25,0,13.8-.15,26.25-2.55,1.5-.3,2.7-.6,3.45-.6.6,0,.9.15.9.9,0,.45-.15,1.05-.3,1.8-.9,3.15-3.75,7.05-4.5,13.05-.3,2.85.15,3.75-3.75,4.05-6.9.6-17.85.9-20.7.9-30.15,0-44.4-11.55-44.4-28.65,0-2.85.9-8.1,2.7-10.5.45-.6,1.5-.9,2.7-.9,2.25,0,4.8.9,4.8,1.8v.15ZM2682.47,414.9c-1.8-.15-16.95-.9-23.4-.9h-17.7c-2.25,0-18.6.6-20.25.9h-.6c-.75,0-1.05-.45-1.05-1.05,0-.45.15-1.2.3-1.65.3-.9.3-1.8.3-2.7,0-1.05,0-2.1-.3-3-.15-.75-.6-1.8-.6-2.4s.3-.9,1.05-.9c.15,0,.45,0,.9.15,1.65.45,13.5,1.2,20.25,1.2h19.05c7.95,0,21.15-1.05,22.35-1.35h.45c.45,0,.6.45.6,1.05s-.15,1.5-.3,2.1c-.3,1.05-.3,2.1-.3,3.3,0,.9,0,1.8.15,2.4.15.75.45,1.5.45,1.95,0,.6-.3.9-1.05.9h-.3Z" style="fill: #0e9c26;"/>
    <path d="M2764.98,480.3c0,1.35-.45,1.95-1.8,1.95-.6,0-1.35-.15-2.25-.3-.75-.15-1.8-.15-3.15-.15-3.15,0-7.35.3-9.3.6-1.05.15-1.65.3-2.25.3-1.35,0-1.5-.75-1.65-3.15-.75-10.2-1.05-20.4-1.05-30.75,0-28.2,2.55-56.7,6.45-84.3.15-1.35.6-1.8,1.2-1.8s1.35.45,2.55.6h1.35c3.45,0,9-.6,11.55-.9.6,0,1.05-.15,1.5-.15,1.2,0,1.8.3,1.8,1.35v.45c-4.2,22.65-7.2,51.45-7.2,78.45,0,12.9.75,25.5,2.25,36.75v1.05ZM2784.33,445.2c0-1.2,1.8-17.25,7.35-17.25,2.4,0,5.55,1.95,5.55,3.3,0,0-.15.15-.15.3-1.35,2.4-2.7,6.6-2.7,9.75,0,9.45,7.5,18.75,39,18.75,13.2,0,29.1-2.55,32.85-3.3.9-.15,1.65-.3,2.1-.3.6,0,.9.15.9.9,0,.45-.15,1.2-.45,2.4-.6,2.55-3.6,7.95-4.05,12.75-.3,2.85.3,3.9-3.9,4.5-12.45,1.8-24.75,1.95-26.55,1.95-36.3,0-49.95-15.3-49.95-33.45v-.3ZM2861.27,386.1c-1.8-.15-16.95-1.05-23.55-1.05h-24.75c-2.25,0-21,.75-22.65,1.05h-.6c-.9,0-1.2-.3-1.2-.9s.3-1.35.45-1.95c.15-.9.3-1.95.3-2.85,0-1.05-.15-2.1-.3-3-.15-.75-.6-1.8-.6-2.4s.3-.9,1.05-.9c.15,0,.45,0,.9.15,1.65.45,15.75,1.2,22.65,1.2h26.25c7.95,0,21-1.05,22.2-1.35h.3c.75,0,1.05.3,1.05.9s-.3,1.5-.6,2.25-.45,1.95-.45,3.15c0,.9.15,1.95.45,2.7.15.6.45,1.35.45,1.8,0,.75-.3,1.2-1.2,1.2h-.15Z" style="fill: #0e9c26;"/>
  </g>
  <g>
    <path d="M1540.36,288.19l-59.33-234.78h38.32l27.68,119.93,15.55,73.61h.95l17.77-73.61,26.33-106.6h39.98l26.02,106.6,17.45,73.29h.95l16.18-73.29,28.38-119.93h36.98l-61.55,234.78h-40.29l-28.24-114.54-16.5-67.26h-.63l-16.82,67.26-28.87,114.54h-40.29Z" style="fill: #fff;"/>
    <path d="M1768.17,205.7c0-52.67,28.87-86.3,75.83-86.3s73.29,36.49,73.29,82.17h0l-113.27,13.01v5.39c0,25.38,15.55,43.47,43.47,43.47,20.31,0,33.95-9.52,43.47-24.75l20.31,19.99c-12.37,19.99-36.49,33.31-67.26,33.31-46.96,0-75.83-33.63-75.83-86.3ZM1879.2,183.47c-4.13-24.1-12.35-37.1-35.19-37.1s-39.98,17.77-39.98,43.15v2.22l75.17-8.27Z" style="fill: #fff;"/>
    <path d="M1949.31,53.41h34.58v97.09h1.59c6.98-19.67,24.43-31.09,46.32-31.09,41.56,0,65.68,32.04,65.68,86.3s-24.11,86.3-65.68,86.3c-21.89,0-39.34-11.74-46.32-31.09h-1.59v27.29h-34.58V53.41ZM2060.99,219.98v-28.56c0-25.38-15.86-42.2-39.66-42.2-20.94,0-37.44,11.42-37.44,28.24v56.48c0,16.82,16.5,28.24,37.44,28.24,23.8,0,39.66-16.82,39.66-42.2Z" style="fill: #fff;"/>
  </g>
  <g>
    <path d="M75.94,300.03v-93.54c-7.7,23.68-21.61,52.98-37.3,70.15l-18.65-30.19c22.79-18.06,37-42.33,43.22-57.72H28.58v-26.34h47.36v-27.53H25.32v-25.75h28.71c-3.26-15.1-7.4-31.38-10.95-39.96h-11.54v-24.86h45.29v-23.98h29.6v23.98h45.29v24.86h-11.25c-1.48,8.58-6.81,25.75-11.84,39.96h30.49v25.75h-52.98v27.53h49.73v26.34h-35.22c14.5,27.23,33.45,44.1,33.45,44.1l-20.42,27.23s-17.76-26.94-27.53-57.43v97.39h-30.19ZM100.21,109.11c4.74-13.32,8.88-30.19,10.36-39.96h-38.48c2.96,9.18,7.1,25.46,10.06,39.96h18.06ZM237.26,300.03v-163.69h-31.08c0,63.05-7.99,118.99-34.93,158.07l-23.68-24.27c24.57-37.89,28.42-77.85,28.42-139.71V38.07c68.67-2.07,99.46-15.69,99.46-15.69l16.28,25.16c-39.37,15.39-85.54,17.17-85.54,17.17v43.81h93.83v27.82h-31.67v163.69h-31.08Z" style="fill: #fff;"/>
    <path d="M548.65,299.74c-53.58-34.93-103.6-101.23-111.89-166.06-9.77,65.71-55.65,129.06-129.65,166.06l-20.72-29.6c108.93-43.81,133.79-150.96,133.79-189.15v-19.54h-67.79v-29.3h100.05v33.45c0,74.89,34.63,151.55,116.92,203.95l-20.72,30.19Z" style="fill: #fff;"/>
    <path d="M585.65,286.71v-28.12h129.95v-60.98h-88.21v-27.82h88.21v-57.43h-67.79c-17.46,29.9-33.15,46.77-33.15,46.77l-27.53-21.31s40.55-38.18,59.79-100.05l31.08,6.22c-4.44,13.91-10.06,28.12-16.28,40.55h53.87V20.9h32.26v63.64h93.24v27.82h-93.24v57.43h80.81v27.82h-80.81v60.98h111.3v28.42l-273.51-.3Z" style="fill: #fff;"/>
    <path d="M863.89,163.58c8.29-20.13,9.77-50.02,9.77-69.86,0-11.84-.59-20.13-.59-20.13l26.05,2.37s.3,6.51.3,16.58c0,19.83-1.18,54.76-9.47,81.7l-26.05-10.66ZM965.71,137.53v-11.54l-18.06,8.58c-2.96-18.35-10.06-38.78-13.02-48.25v213.72h-29.9V20.31h29.9v60.09l19.24-8.58s11.25,23.98,14.5,42.33h68.67v-18.65h-57.72v-21.9h57.72v-16.58h-66.6v-21.61h66.6v-15.1h29.9v15.1h68.97v21.61h-68.97v16.58h61.57v21.9h-61.57v18.65h76.07v23.38h-177.31ZM1064.58,271.32c28.42,0,32.56-2.66,32.56-10.36v-7.1h-85.54v46.18h-30.19v-147.41h145.63v108.34c0,31.97-17.46,37.59-50.02,39.07l-12.43-28.71ZM1097.14,175.12h-85.54v18.65h85.54v-18.65ZM1097.14,214.19h-85.54v19.54h85.54v-19.54Z" style="fill: #fff;"/>
    <path d="M1218.79,300.03v-54.17h-48.25v-27.53h48.25v-32.56h-55.06v-27.23h31.08c-4.74-14.5-10.66-29.6-13.62-37h-21.61v-24.27h58.31v-27.82h-47.06v-24.27h47.06v-24.86h30.19v24.86h44.7v24.27h-44.7v27.82h52.69v24.27h-15.1c-2.07,7.7-7.1,23.09-12.43,37h27.53v27.23h-51.8v32.56h44.4v27.53h-44.4v54.17h-30.19ZM1244.25,158.54c3.85-9.77,10.06-27.23,12.43-37h-44.7c3.26,9.47,7.4,22.2,11.25,37h21.02ZM1420.37,300.03c-10.66-10.06-22.79-26.34-29.3-36.11-8.29,11.84-19.83,25.16-32.86,36.11l-18.65-27.53c14.8-8.88,27.23-19.83,35.52-31.08-20.13-30.78-26.94-67.79-28.71-80.22h-7.4v138.83h-30.49V32.44h123.43v16.28c0,64.83-1.48,67.19-58.02,69.86l-9.77-28.71c36.7,0,37.59-1.78,37.59-21.02v-8.88h-62.75v74.3h95.02s.3,64.23-27.53,107.15c8.29,10.36,17.46,21.02,33.15,31.97l-19.24,26.64ZM1373.9,161.21c1.48,12.43,6.51,31.97,15.98,52.98,10.95-27.23,13.02-52.98,13.02-52.98h-29.01Z" style="fill: #fff;"/>
  </g>
  <g>
    <path d="M2202.58,289.01v-36.45l68.75-60.45c22.82-20.15,33.78-35.86,33.78-55.12v-4.44c0-19.26-14.22-30.82-33.49-30.82-22.82,0-33.78,14.82-38.82,33.19l-34.08-13.33c9.48-28.15,32.3-53.64,76.45-53.64s71.12,27.26,71.12,64.6-24,58.97-53.93,83.56l-47.71,40h107.57v32.89h-149.64Z" style="fill: #fff;"/>
    <path d="M2368.75,180.55c0-71.41,25.48-112.6,80.3-112.6s80.3,41.19,80.3,112.6-25.48,112.31-80.3,112.31-80.3-41.19-80.3-112.31ZM2487.58,199.82v-38.82c0-36.74-10.37-60.15-38.52-60.15s-38.52,23.41-38.52,60.15v38.82c0,36.74,10.37,60.15,38.52,60.15s38.52-23.41,38.52-60.15Z" style="fill: #fff;"/>
    <path d="M2549.8,289.01v-36.45l68.75-60.45c22.82-20.15,33.78-35.86,33.78-55.12v-4.44c0-19.26-14.22-30.82-33.49-30.82-22.82,0-33.78,14.82-38.82,33.19l-34.08-13.33c9.48-28.15,32.3-53.64,76.45-53.64s71.12,27.26,71.12,64.6-24,58.97-53.93,83.56l-47.71,40h107.57v32.89h-149.64Z" style="fill: #fff;"/>
    <path d="M2718.85,229.74c0-28.45,17.48-45.93,43.26-53.04v-2.37c-21.93-7.7-36.74-24.89-36.74-50.08,0-33.19,26.08-56.3,72.3-56.3s72.3,23.11,72.3,56.3c0,25.19-14.82,42.37-36.75,50.08v2.37c25.78,7.11,43.26,24.6,43.26,53.04,0,36.15-28.45,63.12-78.82,63.12s-78.82-26.97-78.82-63.12ZM2835.6,230.04v-6.22c0-20.15-13.63-32.3-37.93-32.3s-37.93,12.15-37.93,32.3v6.22c0,20.45,13.63,32.3,37.93,32.3s37.93-11.85,37.93-32.3ZM2832.64,132.85v-4.74c0-18.96-12.45-29.63-34.97-29.63s-34.97,10.67-34.97,29.63v4.74c0,18.96,12.45,29.63,34.97,29.63s34.97-10.67,34.97-29.63Z" style="fill: #fff;"/>
  </g>
</svg>